<?xml version="1.0" encoding="UTF-8"?>
<!DOCTYPE svg PUBLIC "-//W3C//DTD SVG 1.1//EN" "http://www.w3.org/Graphics/SVG/1.1/DTD/svg11.dtd">
<svg xmlns="http://www.w3.org/2000/svg" version="1.1" width="512px" height="512px" style="shape-rendering:geometricPrecision; text-rendering:geometricPrecision; image-rendering:optimizeQuality; fill-rule:evenodd; clip-rule:evenodd" xmlns:xlink="http://www.w3.org/1999/xlink">
<g><path style="opacity:0.981" fill="#000000" d="M 511.5,239.5 C 511.5,250.5 511.5,261.5 511.5,272.5C 500.971,330.2 467.305,366.7 410.5,382C 366.545,390.014 327.878,379.347 294.5,350C 252.833,302.333 211.167,254.667 169.5,207C 145.247,189.635 119.914,187.969 93.5,202C 66.238,222.123 58.0713,248.29 69,280.5C 81.0472,304.862 100.714,317.529 128,318.5C 143.536,318.433 157.369,313.6 169.5,304C 180.393,291.698 191.393,279.531 202.5,267.5C 217.177,283.512 231.51,299.845 245.5,316.5C 231.272,335.895 214.272,352.395 194.5,366C 150.488,389.333 106.488,389.333 62.5,366C 23.9243,341.352 2.92435,306.185 -0.5,260.5C -0.5,257.167 -0.5,253.833 -0.5,250.5C 2.91958,204.826 23.9196,169.66 62.5,145C 106.5,121.667 150.5,121.667 194.5,145C 207.471,152.96 218.971,162.793 229,174.5C 263.43,215.02 298.097,255.353 333,295.5C 353.821,317.58 378.655,323.747 407.5,314C 438.743,298.681 451.243,273.848 445,239.5C 437.762,215.929 422.262,200.762 398.5,194C 372.587,188.971 350.754,196.138 333,215.5C 326,223.833 319,232.167 312,240.5C 310.887,242.329 309.387,243.163 307.5,243C 293.313,226.981 279.313,210.814 265.5,194.5C 279.728,175.105 296.728,158.605 316.5,145C 355.866,123.963 396.199,121.963 437.5,139C 479.249,159.916 503.916,193.416 511.5,239.5 Z"/></g>
</svg>
