<?xml version="1.0" encoding="UTF-8"?>
<!DOCTYPE svg PUBLIC "-//W3C//DTD SVG 1.1//EN" "http://www.w3.org/Graphics/SVG/1.1/DTD/svg11.dtd">
<svg xmlns="http://www.w3.org/2000/svg" version="1.1" width="512px" height="512px" style="shape-rendering:geometricPrecision; text-rendering:geometricPrecision; image-rendering:optimizeQuality; fill-rule:evenodd; clip-rule:evenodd" xmlns:xlink="http://www.w3.org/1999/xlink">
<g><path style="opacity:0.968" fill="#000000" d="M 228.5,-0.5 C 246.167,-0.5 263.833,-0.5 281.5,-0.5C 377.772,12.9474 447.272,63.2808 490,150.5C 501.094,175.884 508.26,202.217 511.5,229.5C 511.5,247.167 511.5,264.833 511.5,282.5C 499.34,371.028 454.673,437.528 377.5,482C 347.499,497.614 315.832,507.448 282.5,511.5C 264.833,511.5 247.167,511.5 229.5,511.5C 133.228,498.053 63.7284,447.719 21,360.5C 9.9064,335.116 2.73973,308.783 -0.5,281.5C -0.5,263.833 -0.5,246.167 -0.5,228.5C 11.6601,139.972 56.3267,73.4722 133.5,29C 163.501,13.3858 195.168,3.55246 228.5,-0.5 Z M 254.5,35.5 C 348.594,39.9276 416.094,84.2609 457,168.5C 486.005,241.446 479.671,311.113 438,377.5C 385.835,449.323 315.335,481.156 226.5,473C 146.051,459.556 88.5512,416.056 54,342.5C 24.9952,269.554 31.3285,199.887 73,133.5C 117.357,71.3981 177.857,38.7314 254.5,35.5 Z"/></g>
</svg>
